<?xml version="1.0" encoding="UTF-8" standalone="no"?>
<svg
   viewBox="0 0 500 500"
   version="1.1"
   id="svg91"
   xmlns="http://www.w3.org/2000/svg"
   xmlns:svg="http://www.w3.org/2000/svg">
  <defs
     id="defs91" />
  <g
     id="g91"
     transform="matrix(1.6271804,0,0,1.6271804,-110.72149,-177.29758)">
    <g
       id="freepik--Server--inject-3">
      <rect
         x="169.89999"
         y="222.37"
         width="102.97"
         height="193.86"
         style="fill:#66bc46"
         id="rect40" />
      <rect
         x="179.37"
         y="220.00999"
         width="112.61"
         height="2.3699999"
         style="fill:#66bc46"
         id="rect41" />
      <rect
         x="179.37"
         y="220.00999"
         width="112.61"
         height="2.3699999"
         style="opacity:0.3"
         id="rect42" />
      <rect
         x="272.87"
         y="222.37"
         width="28.58"
         height="193.86"
         transform="rotate(180,287.165,319.305)"
         style="fill:#66bc46"
         id="rect43" />
      <rect
         x="272.87"
         y="222.37"
         width="28.58"
         height="193.86"
         transform="rotate(180,287.165,319.305)"
         style="opacity:0.2"
         id="rect44" />
      <rect
         x="257.87"
         y="231.62"
         width="7.6199999"
         height="7.6599998"
         rx="0.93000001"
         style="opacity:0.1"
         id="rect45" />
      <rect
         x="242.14999"
         y="231.62"
         width="7.6199999"
         height="7.6599998"
         rx="0.93000001"
         style="opacity:0.3"
         id="rect46" />
      <rect
         x="226.44"
         y="231.62"
         width="7.6199999"
         height="7.6599998"
         rx="0.93000001"
         style="opacity:0.3"
         id="rect47" />
      <rect
         x="210.72"
         y="231.62"
         width="7.6199999"
         height="7.6599998"
         rx="0.93000001"
         style="opacity:0.1"
         id="rect48" />
      <rect
         x="195.00999"
         y="231.62"
         width="7.6199999"
         height="7.6599998"
         rx="0.93000001"
         style="opacity:0.3"
         id="rect49" />
      <rect
         x="179.28999"
         y="231.62"
         width="7.6199999"
         height="7.6599998"
         rx="0.93000001"
         style="opacity:0.3"
         id="rect50" />
      <g
         style="opacity:0.1"
         id="g51">
        <rect
           x="173.25999"
           y="243.67"
           width="96.25"
           height="30.35"
           id="rect51" />
      </g>
      <rect
         x="260.04999"
         y="248.00999"
         width="5.3099999"
         height="21.68"
         rx="1.3"
         style="fill:#66bc46"
         id="rect52" />
      <rect
         x="249.10001"
         y="248.00999"
         width="5.3099999"
         height="21.68"
         rx="1.3"
         style="opacity:0.1"
         id="rect53" />
      <rect
         x="238.14"
         y="248.00999"
         width="5.3099999"
         height="21.68"
         rx="1.3"
         style="fill:#66bc46"
         id="rect54" />
      <rect
         x="227.17999"
         y="248.00999"
         width="5.3099999"
         height="21.68"
         rx="1.3"
         style="fill:#66bc46"
         id="rect55" />
      <path
         d="m 200.83,254 a 3.5,3.5 0 1 1 3.5,3.5 3.51,3.51 0 0 1 -3.5,-3.5 z"
         style="opacity:0.3;fill:#ffffff"
         id="path55" />
      <path
         d="m 217.84,263.69 a 3.5,3.5 0 1 1 -3.5,-3.51 3.5,3.5 0 0 1 3.5,3.51 z"
         style="opacity:0.1"
         id="path56" />
      <path
         d="m 210.84,254 a 3.5,3.5 0 1 1 3.5,3.5 3.51,3.51 0 0 1 -3.5,-3.5 z"
         style="opacity:0.1"
         id="path57" />
      <path
         d="m 207.83,263.69 a 3.5,3.5 0 1 1 -3.5,-3.51 3.5,3.5 0 0 1 3.5,3.51 z"
         style="opacity:0.1"
         id="path58" />
      <circle
         cx="186.88"
         cy="258.85001"
         r="7.5900002"
         transform="rotate(-45,186.87993,258.8518)"
         style="opacity:0.3;fill:#ffffff"
         id="circle58" />
      <g
         style="opacity:0.1"
         id="g58">
        <rect
           x="173.25999"
           y="278.17999"
           width="96.25"
           height="30.35"
           id="rect58" />
      </g>
      <rect
         x="260.04999"
         y="282.51999"
         width="5.3099999"
         height="21.68"
         rx="1.3"
         style="fill:#66bc46"
         id="rect59" />
      <rect
         x="249.10001"
         y="282.51999"
         width="5.3099999"
         height="21.68"
         rx="1.3"
         style="opacity:0.1"
         id="rect60" />
      <rect
         x="238.14"
         y="282.51999"
         width="5.3099999"
         height="21.68"
         rx="1.3"
         style="fill:#66bc46"
         id="rect61" />
      <rect
         x="227.17999"
         y="282.51999"
         width="5.3099999"
         height="21.68"
         rx="1.3"
         style="fill:#66bc46"
         id="rect62" />
      <path
         d="m 200.83,288.52 a 3.5,3.5 0 1 1 3.5,3.5 3.5,3.5 0 0 1 -3.5,-3.5 z"
         style="opacity:0.3;fill:#ffffff"
         id="path62" />
      <circle
         cx="214.34"
         cy="298.20001"
         r="3.5"
         style="opacity:0.3;fill:#ffffff"
         id="circle62" />
      <path
         d="m 210.84,288.52 a 3.5,3.5 0 1 1 3.5,3.5 3.5,3.5 0 0 1 -3.5,-3.5 z"
         style="opacity:0.1"
         id="path63" />
      <circle
         cx="204.33"
         cy="298.20001"
         r="3.5"
         style="opacity:0.1"
         id="circle63" />
      <circle
         cx="186.88"
         cy="293.35999"
         r="7.5900002"
         style="opacity:0.3;fill:#ffffff"
         id="circle64" />
      <g
         style="opacity:0.1"
         id="g64">
        <rect
           x="173.25999"
           y="312.70001"
           width="96.25"
           height="30.35"
           id="rect64" />
      </g>
      <rect
         x="260.04999"
         y="317.03"
         width="5.3099999"
         height="21.68"
         rx="1.3"
         style="fill:#66bc46"
         id="rect65" />
      <rect
         x="249.10001"
         y="317.03"
         width="5.3099999"
         height="21.68"
         rx="1.3"
         style="opacity:0.1"
         id="rect66" />
      <rect
         x="238.14"
         y="317.03"
         width="5.3099999"
         height="21.68"
         rx="1.3"
         style="fill:#66bc46"
         id="rect67" />
      <rect
         x="227.17999"
         y="317.03"
         width="5.3099999"
         height="21.68"
         rx="1.3"
         style="fill:#66bc46"
         id="rect68" />
      <path
         d="m 200.83,323 a 3.5,3.5 0 1 1 3.5,3.51 3.5,3.5 0 0 1 -3.5,-3.51 z"
         style="opacity:0.3;fill:#ffffff"
         id="path68" />
      <circle
         cx="214.34"
         cy="332.70999"
         r="3.5"
         style="opacity:0.3;fill:#ffffff"
         id="circle68" />
      <path
         d="m 210.84,323 a 3.5,3.5 0 1 1 3.5,3.51 3.5,3.5 0 0 1 -3.5,-3.51 z"
         style="opacity:0.1"
         id="path69" />
      <circle
         cx="204.33"
         cy="332.70999"
         r="3.5"
         style="opacity:0.1"
         id="circle69" />
      <circle
         cx="186.88"
         cy="327.87"
         r="7.5900002"
         style="opacity:0.1"
         id="circle70" />
      <g
         style="opacity:0.1"
         id="g70">
        <rect
           x="173.25999"
           y="347.20999"
           width="96.25"
           height="30.35"
           id="rect70" />
      </g>
      <rect
         x="260.04999"
         y="351.54999"
         width="5.3099999"
         height="21.68"
         rx="1.3"
         style="fill:#66bc46"
         id="rect71" />
      <rect
         x="249.10001"
         y="351.54999"
         width="5.3099999"
         height="21.68"
         rx="1.3"
         style="opacity:0.1"
         id="rect72" />
      <rect
         x="238.14"
         y="351.54999"
         width="5.3099999"
         height="21.68"
         rx="1.3"
         style="fill:#66bc46"
         id="rect73" />
      <rect
         x="227.17999"
         y="351.54999"
         width="5.3099999"
         height="21.68"
         rx="1.3"
         style="fill:#66bc46"
         id="rect74" />
      <circle
         cx="204.33"
         cy="357.54999"
         r="3.5"
         style="opacity:0.3;fill:#ffffff"
         id="circle74" />
      <circle
         cx="214.34"
         cy="367.23001"
         r="3.5"
         style="opacity:0.3;fill:#ffffff"
         id="circle75" />
      <circle
         cx="214.34"
         cy="357.54999"
         r="3.5"
         style="opacity:0.3;fill:#ffffff"
         id="circle76" />
      <circle
         cx="204.33"
         cy="367.23001"
         r="3.5"
         style="opacity:0.1"
         id="circle77" />
      <circle
         cx="186.88"
         cy="362.39001"
         r="7.5900002"
         style="opacity:0.3;fill:#ffffff"
         id="circle78" />
      <g
         style="opacity:0.1"
         id="g78">
        <rect
           x="173.25999"
           y="381.72"
           width="96.25"
           height="30.35"
           id="rect78" />
      </g>
      <rect
         x="260.04999"
         y="386.06"
         width="5.3099999"
         height="21.68"
         rx="1.3"
         style="fill:#66bc46"
         id="rect79" />
      <rect
         x="249.10001"
         y="386.06"
         width="5.3099999"
         height="21.68"
         rx="1.3"
         style="opacity:0.1"
         id="rect80" />
      <rect
         x="238.14"
         y="386.06"
         width="5.3099999"
         height="21.68"
         rx="1.3"
         style="fill:#66bc46"
         id="rect81" />
      <rect
         x="227.17999"
         y="386.06"
         width="5.3099999"
         height="21.68"
         rx="1.3"
         style="fill:#66bc46"
         id="rect82" />
      <circle
         cx="204.33"
         cy="392.06"
         r="3.5"
         style="opacity:0.3;fill:#ffffff"
         id="circle82" />
      <circle
         cx="214.34"
         cy="401.73999"
         r="3.5"
         style="opacity:0.3;fill:#ffffff"
         id="circle83" />
      <circle
         cx="214.34"
         cy="392.06"
         r="3.5"
         style="opacity:0.3;fill:#ffffff"
         id="circle84" />
      <circle
         cx="204.33"
         cy="401.73999"
         r="3.5"
         style="opacity:0.1"
         id="circle85" />
      <circle
         cx="186.88"
         cy="396.89999"
         r="7.5900002"
         style="opacity:0.3;fill:#ffffff"
         id="circle86" />
      <polygon
         points="183.21,217.65 172.76,175.09 247.06,175.09 257.51,217.65 "
         style="fill:#66bc46"
         id="polygon86" />
      <polygon
         points="283.59,217.65 204.21,217.65 204.5,220 283.88,220 "
         style="fill:#66bc46"
         id="polygon87" />
      <polygon
         points="183.5,220 183.21,217.65 172.76,175.09 244.84,175.09 255.29,217.65 255.3,217.65 255.59,220 "
         style="fill:#66bc46"
         id="polygon88" />
      <polygon
         points="183.5,220 183.21,217.65 172.76,175.09 244.84,175.09 255.29,217.65 255.3,217.65 255.59,220 "
         style="opacity:0.6;fill:#ffffff"
         id="polygon89" />
      <path
         d="m 214.9,149.91 -0.47,-0.24 c -0.6,-0.31 -14.63,-7.78 -16.62,-17.59 A 86.44,86.44 0 0 1 196.35,113 v -0.88 l 0.88,-0.06 c 0.11,0 10.57,-0.83 17.32,-3 l 0.31,-0.1 0.3,0.1 c 6.75,2.15 17.21,3 17.32,3 l 0.88,0.06 V 113 A 86.44,86.44 0 0 1 232,132.08 c -2,9.81 -16,17.28 -16.62,17.59 z M 198.32,114 a 85.83,85.83 0 0 0 1.46,17.7 c 1.6,7.94 12.69,14.6 15.12,16 2.42,-1.36 13.51,-8 15.11,-16 A 85.1,85.1 0 0 0 231.47,114 92.16,92.16 0 0 1 214.9,111.11 92.39,92.39 0 0 1 198.32,114 Z"
         style="opacity:0.3;fill:#66bc46"
         id="path89" />
      <path
         d="m 214.9,144.35 c -4.19,-2.56 -11.25,-7.86 -12.33,-13.23 a 79.84,79.84 0 0 1 -1.42,-14.56 90.74,90.74 0 0 0 13.75,-2.5 90.41,90.41 0 0 0 13.74,2.5 80.51,80.51 0 0 1 -1.42,14.56 c -1.08,5.37 -8.14,10.67 -12.32,13.23 z"
         style="fill:#66bc46"
         id="path90" />
      <path
         d="m 143.91,416.24 h -2 V 182.56 a 21.73,21.73 0 0 1 21.7,-21.7 h 44.6 a 5.7,5.7 0 0 0 5.68,-5.69 h 2 a 7.69,7.69 0 0 1 -7.68,7.69 h -44.6 a 19.72,19.72 0 0 0 -19.7,19.7 z"
         style="opacity:0.3;fill:#66bc46"
         id="path91" />
    </g>
  </g>
</svg>
