<?xml version="1.0" encoding="UTF-8" standalone="no"?>
<svg
   viewBox="0 0 500 500"
   version="1.1"
   id="svg91"
   xmlns="http://www.w3.org/2000/svg"
   xmlns:svg="http://www.w3.org/2000/svg">
  <defs
     id="defs91" />
  <g
     id="g91"
     transform="matrix(1.5957107,0,0,1.5957107,-148.92739,-164.19863)">
    <g
       id="freepik--Character--inject-3"
       transform="translate(0,1.6000007)">
      <polygon
         points="347.11,399.4 342.24,383.04 349.43,381.52 354.3,397.88 "
         style="fill:#7f3e3b"
         id="polygon1" />
      <path
         d="m 346.66,398.62 7.85,-1.65 a 0.66,0.66 0 0 1 0.72,0.36 l 2.76,6.09 a 1.07,1.07 0 0 1 -0.76,1.5 c -2.85,0.55 -7,1.24 -10.53,2 -4.16,0.88 -4.74,1.77 -9.69,2.4 -3,0.38 -4.2,-2.54 -3,-3 5.55,-2 6.8,-2.77 11,-6.79 a 3.37,3.37 0 0 1 1.65,-0.91 z"
         style="fill:#263238"
         id="path1" />
      <polygon
         points="344.75,391.48 351.94,389.96 349.43,381.53 342.24,383.04 "
         style="opacity:0.2"
         id="polygon2" />
      <path
         d="m 302.22,163.84 c -1.47,4.87 -3.08,9.61 -4.83,14.37 -1.75,4.76 -3.63,9.45 -5.85,14.2 l -0.87,1.79 -0.95,1.83 c -0.32,0.61 -0.7,1.18 -1.05,1.78 -0.35,0.6 -0.7,1.17 -1.1,1.73 a 54.45,54.45 0 0 1 -5,6.4 55.86,55.86 0 0 1 -5.75,5.56 c -1,0.86 -2.06,1.67 -3.15,2.44 -1.09,0.77 -2.14,1.49 -3.42,2.23 l -3.54,-4.71 c 0.69,-0.8 1.53,-1.73 2.27,-2.63 0.74,-0.9 1.47,-1.86 2.2,-2.79 1.43,-1.88 2.78,-3.81 4,-5.76 a 65.16,65.16 0 0 0 3.41,-6 c 0.52,-1 1,-2 1.44,-3.07 l 0.66,-1.55 0.64,-1.63 c 1.69,-4.43 3.27,-9.1 4.82,-13.77 l 4.68,-14 z"
         style="fill:#803e3c"
         id="path2" />
      <path
         d="m 307.47,155.91 c 2.53,6.73 -10.92,30.67 -10.92,30.67 l -15.12,-11.66 a 116.2,116.2 0 0 1 9.39,-18.24 c 5.32,-7.93 13.87,-8.15 16.65,-0.77 z"
         style="fill:#66bc46"
         id="path3" />
      <path
         d="m 304.51,162.56 c -4.78,2 -11.27,9.72 -13.3,19.9 l 5.34,4.12 c 0,0 8,-14.16 10.47,-23.76 a 2.31,2.31 0 0 0 -2.51,-0.26 z"
         style="opacity:0.2"
         id="path4" />
      <path
         d="m 298.54,150.77 c 0,0 -8.87,16.78 -0.44,59.06 h 40.21 c 0.27,-6.18 -3.61,-30.37 2.35,-59.45 a 105.49,105.49 0 0 0 -13.46,-1.7 147.52,147.52 0 0 0 -17.09,0 74.77,74.77 0 0 0 -11.57,2.09 z"
         style="fill:#66bc46"
         id="path5" />
      <polygon
         points="257.9,220.28 263.96,218.67 259.85,211.36 253.81,216.58 "
         style="fill:#7f3e3b"
         id="polygon5" />
      <path
         d="m 268.72,211.78 -8.87,-0.42 4.11,7.31 c 0,0 6.59,0.7 7.22,-4.17 z"
         style="fill:#7f3e3b"
         id="path6" />
      <path
         d="m 325.5,129.43 c -1.07,5.5 -2.15,15.58 1.7,19.25 0,0 -1.73,3.69 -11.95,3.69 -9.34,0 -5.14,-3.69 -5.14,-3.69 6.13,-1.46 6,-6 4.9,-10.29 z"
         style="fill:#7f3e3b"
         id="path7" />
      <path
         d="m 321.23,133.09 -6.21,5.3 a 18,18 0 0 1 0.52,3 c 1.5,2.33 5.59,-1.09 6.34,-4.67 a 8.33,8.33 0 0 0 -0.65,-3.63 z"
         style="opacity:0.2"
         id="path8" />
      <path
         d="m 300.83,117.35 c -2.05,3.45 2.46,13 7.68,12.13 5.22,-0.87 -3.78,-18.66 -7.68,-12.13 z"
         style="fill:#263238"
         id="path9" />
      <path
         d="m 323,120.79 c 1.09,7.38 2.1,11.64 -0.79,16.16 -4.34,6.79 -14,5.35 -17.32,-1.55 -2.95,-6.22 -4.24,-17.24 2.28,-21.65 a 10.18,10.18 0 0 1 15.83,7.04 z"
         style="fill:#7f3e3b"
         id="path10" />
      <path
         d="m 323.65,111.06 -6.37,4.64 c 3.84,4.57 -0.52,14.56 5.53,12.29 2.77,-0.99 9.92,-11.89 0.84,-16.93 z"
         style="fill:#263238"
         id="path11" />
      <path
         d="m 316,105.37 c -9.67,2.34 -10.53,-0.45 -9.88,-4.07 -7.23,1.19 -12.64,6.89 -8.44,13.78 4.66,7.65 18.88,1.44 21.39,1.39 l 3.61,-0.88 c 8.2,-2.39 5.4,-13.13 -6.68,-10.22 z"
         style="fill:#263238"
         id="path12" />
      <path
         d="m 324.62,124.65 v 0 c -1.83,0 -7.49,0 -7.55,0 a 0.16,0.16 0 0 1 -0.16,-0.16 0.15,0.15 0 0 1 0.16,-0.16 c 0.06,0 5.72,0 7.55,0 a 0.16,0.16 0 0 1 0.16,0.16 0.16,0.16 0 0 1 -0.16,0.16 z"
         style="fill:#ffffff"
         id="path13" />
      <path
         d="m 328,128.12 a 7.12,7.12 0 0 1 -3.67,4 c -2.27,1 -3.78,-0.91 -3.46,-3.25 0.28,-2.1 1.8,-5.17 4.23,-5.21 a 3.18,3.18 0 0 1 2.9,4.46 z"
         style="fill:#7f3e3b"
         id="path14" />
      <polygon
         points="306.44,407.14 306.19,390.12 313.54,390.12 313.78,407.14 "
         style="fill:#7f3e3b"
         id="polygon14" />
      <path
         d="m 306.14,406.29 h 8 a 0.62,0.62 0 0 1 0.62,0.5 l 1.45,6.53 a 1.06,1.06 0 0 1 -1.05,1.3 c -2.9,-0.05 -7.08,-0.22 -10.72,-0.22 -4.25,0 -7.92,0.24 -12.91,0.24 -3,0 -3.85,-3.05 -2.59,-3.33 5.75,-1.26 10.44,-1.39 15.4,-4.45 a 3.35,3.35 0 0 1 1.8,-0.57 z"
         style="fill:#263238"
         id="path15" />
      <polygon
         points="306.32,398.9 313.67,398.9 313.54,390.13 306.19,390.13 "
         style="opacity:0.2"
         id="polygon15" />
      <path
         d="m 303.11,407.41 a 2.27,2.27 0 0 1 -1.49,-0.15 1.09,1.09 0 0 1 -0.51,-0.87 0.57,0.57 0 0 1 0.23,-0.55 c 0.74,-0.55 3.38,0.54 3.68,0.67 a 0.18,0.18 0 0 1 0.1,0.17 0.17,0.17 0 0 1 -0.11,0.16 9.12,9.12 0 0 1 -1.9,0.57 z m -1.34,-1.36 a 0.41,0.41 0 0 0 -0.22,0.08 0.19,0.19 0 0 0 -0.08,0.22 0.68,0.68 0 0 0 0.34,0.6 3.6,3.6 0 0 0 2.65,-0.28 7.18,7.18 0 0 0 -2.69,-0.62 z"
         style="fill:#66bc46"
         id="path16" />
      <path
         d="m 305,406.85 h -0.08 c -0.84,-0.29 -2.58,-1.69 -2.55,-2.54 a 0.57,0.57 0 0 1 0.48,-0.55 1,1 0 0 1 0.79,0.11 c 1,0.57 1.49,2.68 1.51,2.77 a 0.2,0.2 0 0 1 -0.06,0.18 0.19,0.19 0 0 1 -0.09,0.03 z m -2,-2.77 h -0.08 c -0.22,0.07 -0.23,0.18 -0.23,0.22 0,0.51 1.13,1.59 2,2 a 4.24,4.24 0 0 0 -1.24,-2.18 0.58,0.58 0 0 0 -0.45,-0.04 z"
         style="fill:#66bc46"
         id="path17" />
      <path
         d="m 298.1,209.83 c 0,0 -5.4,68.91 -6.41,91.83 -1.06,23.83 12.24,95.13 12.24,95.13 h 11.95 c 0,0 -3.94,-66.13 -1.88,-89.46 2.24,-25.44 10.53,-97.5 10.53,-97.5 z"
         style="fill:#263238"
         id="path18" />
      <path
         d="m 310.15,264 a 149.49,149.49 0 0 0 5.4,27.43 c 1.84,-18.09 4.54,-42.4 6.5,-59.77 -4.6,3.01 -13.72,11.72 -11.9,32.34 z"
         style="opacity:0.2"
         id="path19" />
      <path
         d="m 312,209.83 c 0,0 3.07,68.68 7.76,90.2 5.12,23.57 20.42,90.26 20.42,90.26 l 13.47,-2.84 c 0,0 -9.08,-63.23 -12,-86.56 -3.17,-25.33 -3.7,-91.06 -3.7,-91.06 z"
         style="fill:#263238"
         id="path20" />
      <polygon
         points="340.07,390.61 337.65,385.4 353.62,381.57 354.58,387.56 "
         style="fill:#66bc46"
         id="polygon20" />
      <polygon
         points="303.36,397.09 302.06,391.49 318.44,391.78 318.19,397.09 "
         style="fill:#66bc46"
         id="polygon21" />
      <path
         d="m 312.85,125.06 c 0.13,0.59 -0.08,1.14 -0.47,1.22 -0.39,0.08 -0.81,-0.33 -0.93,-0.92 -0.12,-0.59 0.09,-1.14 0.47,-1.22 0.38,-0.08 0.81,0.33 0.93,0.92 z"
         style="fill:#263238"
         id="path21" />
      <path
         d="m 306.15,126.48 c 0.12,0.59 -0.09,1.14 -0.48,1.22 -0.39,0.08 -0.8,-0.33 -0.93,-0.92 -0.13,-0.59 0.09,-1.15 0.48,-1.23 0.39,-0.08 0.78,0.34 0.93,0.93 z"
         style="fill:#263238"
         id="path22" />
      <path
         d="m 307.89,126.42 a 21.45,21.45 0 0 1 -1.76,5.67 3.49,3.49 0 0 0 2.95,-0.07 z"
         style="fill:#630f0f"
         id="path23" />
      <path
         d="m 310.5,134.37 a 0.18,0.18 0 1 1 -0.06,-0.35 4.81,4.81 0 0 0 3.55,-2.5 0.18,0.18 0 0 1 0.23,-0.1 0.18,0.18 0 0 1 0.09,0.24 5.06,5.06 0 0 1 -3.81,2.71 z"
         style="fill:#263238"
         id="path24" />
      <path
         d="m 316,119.85 a 0.35,0.35 0 0 1 -0.31,-0.06 2.84,2.84 0 0 0 -2.53,-0.46 0.36,0.36 0 0 1 -0.26,-0.67 3.55,3.55 0 0 1 3.21,0.56 0.35,0.35 0 0 1 0.08,0.49 0.43,0.43 0 0 1 -0.19,0.14 z"
         style="fill:#263238"
         id="path25" />
      <path
         d="m 302.09,122 a 0.3,0.3 0 0 1 -0.15,-0.05 0.36,0.36 0 0 1 -0.1,-0.49 3.5,3.5 0 0 1 2.78,-1.68 0.36,0.36 0 0 1 0,0.71 v 0 a 2.82,2.82 0 0 0 -2.19,1.35 0.34,0.34 0 0 1 -0.34,0.16 z"
         style="fill:#263238"
         id="path26" />
      <path
         d="m 334.7,149 -1.9,-0.17 a 0.39,0.39 0 0 0 -0.4,0.31 c -5.28,28.36 -2.32,58.48 -2.32,58.48 h 2.1 a 270.14,270.14 0 0 1 2.85,-58.2 0.36,0.36 0 0 0 -0.33,-0.42 z"
         style="fill:#263238"
         id="path27" />
      <path
         d="m 332.48,207.64 a 0.68,0.68 0 0 0 -0.67,-0.68 h -1.45 a 0.69,0.69 0 0 0 -0.68,0.68 0.66,0.66 0 0 0 0.52,0.64 v 1.8 a 0.89,0.89 0 0 0 1.77,0 v -1.8 a 0.66,0.66 0 0 0 0.51,-0.64 z"
         style="fill:#ffffff"
         id="path28" />
      <path
         d="m 302.87,149.4 -1.88,0.35 a 0.37,0.37 0 0 0 -0.3,0.32 c -4,28.38 0.38,57.57 0.38,57.57 h 2.09 c -3.12,-30.89 -0.35,-54.16 0.14,-57.83 a 0.37,0.37 0 0 0 -0.43,-0.41 z"
         style="fill:#263238"
         id="path29" />
      <path
         d="m 303.47,207.64 a 0.73,0.73 0 0 0 -0.71,-0.68 h -1.45 a 0.64,0.64 0 0 0 -0.64,0.68 0.69,0.69 0 0 0 0.54,0.64 l 0.09,1.8 a 0.93,0.93 0 0 0 0.92,0.88 0.84,0.84 0 0 0 0.85,-0.88 l -0.09,-1.8 a 0.63,0.63 0 0 0 0.49,-0.64 z"
         style="fill:#ffffff"
         id="path30" />
      <path
         d="m 343.93,400.35 a 2.35,2.35 0 0 1 -1.49,0.16 1.07,1.07 0 0 1 -0.68,-0.75 0.58,0.58 0 0 1 0.1,-0.58 c 0.62,-0.69 3.42,-0.17 3.74,-0.1 a 0.16,0.16 0 0 1 0.14,0.14 0.17,0.17 0 0 1 -0.07,0.18 9.71,9.71 0 0 1 -1.74,0.95 z m -1.6,-1.05 a 0.43,0.43 0 0 0 -0.2,0.12 c 0,0 -0.07,0.1 0,0.23 a 0.69,0.69 0 0 0 0.45,0.52 3.64,3.64 0 0 0 2.55,-0.82 7,7 0 0 0 -2.8,-0.05 z"
         style="fill:#66bc46"
         id="path31" />
      <path
         d="m 345.63,399.42 h -0.09 c -0.87,-0.12 -2.87,-1.12 -3,-2 a 0.59,0.59 0 0 1 0.37,-0.64 1,1 0 0 1 0.79,-0.06 c 1.07,0.36 2,2.32 2.05,2.4 a 0.19,0.19 0 0 1 0,0.19 z m -2.5,-2.31 h -0.08 c -0.2,0.11 -0.18,0.22 -0.18,0.26 0.09,0.5 1.43,1.32 2.36,1.6 -0.3,-0.57 -1,-1.66 -1.67,-1.89 a 0.63,0.63 0 0 0 -0.43,0.03 z"
         style="fill:#66bc46"
         id="path32" />
      <path
         d="m 313.92,130.07 c -2.37,0.5 -4.81,-1.5 -5.43,-4.45 -0.55,-2.63 0.67,-4.39 3.44,-5 2.77,-0.61 4.6,0.54 5.16,3.16 0.62,2.98 -0.8,5.79 -3.17,6.29 z M 312,121 c -1.81,0.38 -3.84,1.49 -3.18,4.59 0.58,2.78 2.85,4.67 5,4.2 2.15,-0.47 3.51,-3.1 2.92,-5.88 -0.63,-3.14 -2.93,-3.34 -4.74,-2.91 z"
         style="fill:#ffffff"
         id="path33" />
      <path
         d="m 304.21,132.12 c -2,0.42 -4.12,-1.64 -4.74,-4.59 -0.75,-3.55 1.4,-4.55 2.75,-4.84 1.35,-0.29 3.72,-0.23 4.47,3.31 0.62,3 -0.49,5.7 -2.48,6.12 z M 302.29,123 c -1.51,0.32 -3.16,1.35 -2.51,4.45 0.59,2.78 2.55,4.73 4.36,4.34 1.81,-0.39 2.82,-3 2.23,-5.73 -0.65,-3.06 -2.58,-3.37 -4.08,-3.06 z"
         style="fill:#ffffff"
         id="path34" />
      <path
         d="m 308.64,123.78 h -0.08 a 2.6,2.6 0 0 0 -2.62,0.55 0.15,0.15 0 0 1 -0.22,0 0.16,0.16 0 0 1 0,-0.23 2.9,2.9 0 0 1 2.92,-0.61 0.16,0.16 0 0 1 0.11,0.19 0.18,0.18 0 0 1 -0.11,0.1 z"
         style="fill:#ffffff"
         id="path35" />
      <polygon
         points="315.87,152.36 317.33,151.3 320.46,154.3 "
         style="fill:#263238"
         id="polygon35" />
      <path
         d="m 317.33,151.3 c 0,0 2.58,3.61 3.08,6.22 3.09,-1.28 8.91,-4.48 9.69,-9 a 13.48,13.48 0 0 1 -3.19,-1.5 c 0,0 -3.11,2.64 -9.58,4.28 z"
         style="fill:#ffffff"
         id="path36" />
      <polygon
         points="315.87,152.36 315.26,151.13 311.22,154.3 "
         style="fill:#263238"
         id="polygon36" />
      <path
         d="m 315.26,151.14 a 10,10 0 0 0 -3,5.75 c -3.08,-1.28 -4.29,-5.45 -3.49,-8.23 a 18.46,18.46 0 0 1 3.66,-1.2 3.56,3.56 0 0 0 2.83,3.68 z"
         style="fill:#ffffff"
         id="path37" />
      <polygon
         points="315.61,219.7 320.85,217.24 316.42,208.96 310.38,214.19 "
         style="fill:#7f3e3b"
         id="polygon37" />
      <path
         d="m 325.29,209.38 -8.87,-0.42 4.43,8.28 c 0,0 6.27,-0.27 6.9,-5.13 z"
         style="fill:#7f3e3b"
         id="path38" />
      <path
         d="m 348,160.73 c 1.31,5.43 2.47,10.86 3.51,16.35 q 0.78,4.11 1.46,8.26 c 0.47,2.77 0.88,5.55 1.22,8.45 a 13.06,13.06 0 0 1 0.13,1.65 10.06,10.06 0 0 1 -0.12,1.9 11.9,11.9 0 0 1 -1.07,3.45 16,16 0 0 1 -3.66,4.76 31.34,31.34 0 0 1 -8.2,5.17 66.49,66.49 0 0 1 -16.86,4.84 l -1.47,-5.7 c 2.4,-1 4.92,-2.1 7.29,-3.29 a 69.35,69.35 0 0 0 6.82,-3.77 25,25 0 0 0 5.38,-4.32 5.66,5.66 0 0 0 1.2,-1.94 1.36,1.36 0 0 0 0.06,-0.52 0.43,0.43 0 0 0 0,-0.17 1.5,1.5 0 0 1 -0.1,-0.42 c -1.06,-5.18 -2.37,-10.59 -3.58,-15.93 -1.21,-5.34 -2.45,-10.76 -3.57,-16.14 z"
         style="fill:#803e3c"
         id="path39" />
      <path
         d="m 340.66,150.38 c 10,1.79 14.42,26.81 14.42,26.81 L 339,187.05 c 0,0 -5.11,-14.76 -4.84,-24.05 0.28,-8.86 -1.09,-14 6.5,-12.62 z"
         style="fill:#66bc46"
         id="path40" />
    </g>
    <g
       id="freepik--Server--inject-3">
      <rect
         x="169.89999"
         y="222.37"
         width="102.97"
         height="193.86"
         style="fill:#66bc46"
         id="rect40" />
      <rect
         x="179.37"
         y="220.00999"
         width="112.61"
         height="2.3699999"
         style="fill:#66bc46"
         id="rect41" />
      <rect
         x="179.37"
         y="220.00999"
         width="112.61"
         height="2.3699999"
         style="opacity:0.3"
         id="rect42" />
      <rect
         x="272.87"
         y="222.37"
         width="28.58"
         height="193.86"
         transform="rotate(180,287.165,319.305)"
         style="fill:#66bc46"
         id="rect43" />
      <rect
         x="272.87"
         y="222.37"
         width="28.58"
         height="193.86"
         transform="rotate(180,287.165,319.305)"
         style="opacity:0.2"
         id="rect44" />
      <rect
         x="257.87"
         y="231.62"
         width="7.6199999"
         height="7.6599998"
         rx="0.93000001"
         style="opacity:0.1"
         id="rect45" />
      <rect
         x="242.14999"
         y="231.62"
         width="7.6199999"
         height="7.6599998"
         rx="0.93000001"
         style="opacity:0.3"
         id="rect46" />
      <rect
         x="226.44"
         y="231.62"
         width="7.6199999"
         height="7.6599998"
         rx="0.93000001"
         style="opacity:0.3"
         id="rect47" />
      <rect
         x="210.72"
         y="231.62"
         width="7.6199999"
         height="7.6599998"
         rx="0.93000001"
         style="opacity:0.1"
         id="rect48" />
      <rect
         x="195.00999"
         y="231.62"
         width="7.6199999"
         height="7.6599998"
         rx="0.93000001"
         style="opacity:0.3"
         id="rect49" />
      <rect
         x="179.28999"
         y="231.62"
         width="7.6199999"
         height="7.6599998"
         rx="0.93000001"
         style="opacity:0.3"
         id="rect50" />
      <g
         style="opacity:0.1"
         id="g51">
        <rect
           x="173.25999"
           y="243.67"
           width="96.25"
           height="30.35"
           id="rect51" />
      </g>
      <rect
         x="260.04999"
         y="248.00999"
         width="5.3099999"
         height="21.68"
         rx="1.3"
         style="fill:#66bc46"
         id="rect52" />
      <rect
         x="249.10001"
         y="248.00999"
         width="5.3099999"
         height="21.68"
         rx="1.3"
         style="opacity:0.1"
         id="rect53" />
      <rect
         x="238.14"
         y="248.00999"
         width="5.3099999"
         height="21.68"
         rx="1.3"
         style="fill:#66bc46"
         id="rect54" />
      <rect
         x="227.17999"
         y="248.00999"
         width="5.3099999"
         height="21.68"
         rx="1.3"
         style="fill:#66bc46"
         id="rect55" />
      <path
         d="m 200.83,254 a 3.5,3.5 0 1 1 3.5,3.5 3.51,3.51 0 0 1 -3.5,-3.5 z"
         style="opacity:0.3;fill:#ffffff"
         id="path55" />
      <path
         d="m 217.84,263.69 a 3.5,3.5 0 1 1 -3.5,-3.51 3.5,3.5 0 0 1 3.5,3.51 z"
         style="opacity:0.1"
         id="path56" />
      <path
         d="m 210.84,254 a 3.5,3.5 0 1 1 3.5,3.5 3.51,3.51 0 0 1 -3.5,-3.5 z"
         style="opacity:0.1"
         id="path57" />
      <path
         d="m 207.83,263.69 a 3.5,3.5 0 1 1 -3.5,-3.51 3.5,3.5 0 0 1 3.5,3.51 z"
         style="opacity:0.1"
         id="path58" />
      <circle
         cx="186.88"
         cy="258.85001"
         r="7.5900002"
         transform="rotate(-45,186.87993,258.8518)"
         style="opacity:0.3;fill:#ffffff"
         id="circle58" />
      <g
         style="opacity:0.1"
         id="g58">
        <rect
           x="173.25999"
           y="278.17999"
           width="96.25"
           height="30.35"
           id="rect58" />
      </g>
      <rect
         x="260.04999"
         y="282.51999"
         width="5.3099999"
         height="21.68"
         rx="1.3"
         style="fill:#66bc46"
         id="rect59" />
      <rect
         x="249.10001"
         y="282.51999"
         width="5.3099999"
         height="21.68"
         rx="1.3"
         style="opacity:0.1"
         id="rect60" />
      <rect
         x="238.14"
         y="282.51999"
         width="5.3099999"
         height="21.68"
         rx="1.3"
         style="fill:#66bc46"
         id="rect61" />
      <rect
         x="227.17999"
         y="282.51999"
         width="5.3099999"
         height="21.68"
         rx="1.3"
         style="fill:#66bc46"
         id="rect62" />
      <path
         d="m 200.83,288.52 a 3.5,3.5 0 1 1 3.5,3.5 3.5,3.5 0 0 1 -3.5,-3.5 z"
         style="opacity:0.3;fill:#ffffff"
         id="path62" />
      <circle
         cx="214.34"
         cy="298.20001"
         r="3.5"
         style="opacity:0.3;fill:#ffffff"
         id="circle62" />
      <path
         d="m 210.84,288.52 a 3.5,3.5 0 1 1 3.5,3.5 3.5,3.5 0 0 1 -3.5,-3.5 z"
         style="opacity:0.1"
         id="path63" />
      <circle
         cx="204.33"
         cy="298.20001"
         r="3.5"
         style="opacity:0.1"
         id="circle63" />
      <circle
         cx="186.88"
         cy="293.35999"
         r="7.5900002"
         style="opacity:0.3;fill:#ffffff"
         id="circle64" />
      <g
         style="opacity:0.1"
         id="g64">
        <rect
           x="173.25999"
           y="312.70001"
           width="96.25"
           height="30.35"
           id="rect64" />
      </g>
      <rect
         x="260.04999"
         y="317.03"
         width="5.3099999"
         height="21.68"
         rx="1.3"
         style="fill:#66bc46"
         id="rect65" />
      <rect
         x="249.10001"
         y="317.03"
         width="5.3099999"
         height="21.68"
         rx="1.3"
         style="opacity:0.1"
         id="rect66" />
      <rect
         x="238.14"
         y="317.03"
         width="5.3099999"
         height="21.68"
         rx="1.3"
         style="fill:#66bc46"
         id="rect67" />
      <rect
         x="227.17999"
         y="317.03"
         width="5.3099999"
         height="21.68"
         rx="1.3"
         style="fill:#66bc46"
         id="rect68" />
      <path
         d="m 200.83,323 a 3.5,3.5 0 1 1 3.5,3.51 3.5,3.5 0 0 1 -3.5,-3.51 z"
         style="opacity:0.3;fill:#ffffff"
         id="path68" />
      <circle
         cx="214.34"
         cy="332.70999"
         r="3.5"
         style="opacity:0.3;fill:#ffffff"
         id="circle68" />
      <path
         d="m 210.84,323 a 3.5,3.5 0 1 1 3.5,3.51 3.5,3.5 0 0 1 -3.5,-3.51 z"
         style="opacity:0.1"
         id="path69" />
      <circle
         cx="204.33"
         cy="332.70999"
         r="3.5"
         style="opacity:0.1"
         id="circle69" />
      <circle
         cx="186.88"
         cy="327.87"
         r="7.5900002"
         style="opacity:0.1"
         id="circle70" />
      <g
         style="opacity:0.1"
         id="g70">
        <rect
           x="173.25999"
           y="347.20999"
           width="96.25"
           height="30.35"
           id="rect70" />
      </g>
      <rect
         x="260.04999"
         y="351.54999"
         width="5.3099999"
         height="21.68"
         rx="1.3"
         style="fill:#66bc46"
         id="rect71" />
      <rect
         x="249.10001"
         y="351.54999"
         width="5.3099999"
         height="21.68"
         rx="1.3"
         style="opacity:0.1"
         id="rect72" />
      <rect
         x="238.14"
         y="351.54999"
         width="5.3099999"
         height="21.68"
         rx="1.3"
         style="fill:#66bc46"
         id="rect73" />
      <rect
         x="227.17999"
         y="351.54999"
         width="5.3099999"
         height="21.68"
         rx="1.3"
         style="fill:#66bc46"
         id="rect74" />
      <circle
         cx="204.33"
         cy="357.54999"
         r="3.5"
         style="opacity:0.3;fill:#ffffff"
         id="circle74" />
      <circle
         cx="214.34"
         cy="367.23001"
         r="3.5"
         style="opacity:0.3;fill:#ffffff"
         id="circle75" />
      <circle
         cx="214.34"
         cy="357.54999"
         r="3.5"
         style="opacity:0.3;fill:#ffffff"
         id="circle76" />
      <circle
         cx="204.33"
         cy="367.23001"
         r="3.5"
         style="opacity:0.1"
         id="circle77" />
      <circle
         cx="186.88"
         cy="362.39001"
         r="7.5900002"
         style="opacity:0.3;fill:#ffffff"
         id="circle78" />
      <g
         style="opacity:0.1"
         id="g78">
        <rect
           x="173.25999"
           y="381.72"
           width="96.25"
           height="30.35"
           id="rect78" />
      </g>
      <rect
         x="260.04999"
         y="386.06"
         width="5.3099999"
         height="21.68"
         rx="1.3"
         style="fill:#66bc46"
         id="rect79" />
      <rect
         x="249.10001"
         y="386.06"
         width="5.3099999"
         height="21.68"
         rx="1.3"
         style="opacity:0.1"
         id="rect80" />
      <rect
         x="238.14"
         y="386.06"
         width="5.3099999"
         height="21.68"
         rx="1.3"
         style="fill:#66bc46"
         id="rect81" />
      <rect
         x="227.17999"
         y="386.06"
         width="5.3099999"
         height="21.68"
         rx="1.3"
         style="fill:#66bc46"
         id="rect82" />
      <circle
         cx="204.33"
         cy="392.06"
         r="3.5"
         style="opacity:0.3;fill:#ffffff"
         id="circle82" />
      <circle
         cx="214.34"
         cy="401.73999"
         r="3.5"
         style="opacity:0.3;fill:#ffffff"
         id="circle83" />
      <circle
         cx="214.34"
         cy="392.06"
         r="3.5"
         style="opacity:0.3;fill:#ffffff"
         id="circle84" />
      <circle
         cx="204.33"
         cy="401.73999"
         r="3.5"
         style="opacity:0.1"
         id="circle85" />
      <circle
         cx="186.88"
         cy="396.89999"
         r="7.5900002"
         style="opacity:0.3;fill:#ffffff"
         id="circle86" />
      <polygon
         points="172.76,175.09 247.06,175.09 257.51,217.65 183.21,217.65 "
         style="fill:#66bc46"
         id="polygon86" />
      <polygon
         points="204.21,217.65 204.5,220 283.88,220 283.59,217.65 "
         style="fill:#66bc46"
         id="polygon87" />
      <polygon
         points="255.29,217.65 255.3,217.65 255.59,220 183.5,220 183.21,217.65 172.76,175.09 244.84,175.09 "
         style="fill:#66bc46"
         id="polygon88" />
      <polygon
         points="255.29,217.65 255.3,217.65 255.59,220 183.5,220 183.21,217.65 172.76,175.09 244.84,175.09 "
         style="opacity:0.6;fill:#ffffff"
         id="polygon89" />
      <path
         d="m 214.9,149.91 -0.47,-0.24 c -0.6,-0.31 -14.63,-7.78 -16.62,-17.59 A 86.44,86.44 0 0 1 196.35,113 v -0.88 l 0.88,-0.06 c 0.11,0 10.57,-0.83 17.32,-3 l 0.31,-0.1 0.3,0.1 c 6.75,2.15 17.21,3 17.32,3 l 0.88,0.06 V 113 A 86.44,86.44 0 0 1 232,132.08 c -2,9.81 -16,17.28 -16.62,17.59 z M 198.32,114 a 85.83,85.83 0 0 0 1.46,17.7 c 1.6,7.94 12.69,14.6 15.12,16 2.42,-1.36 13.51,-8 15.11,-16 A 85.1,85.1 0 0 0 231.47,114 92.16,92.16 0 0 1 214.9,111.11 92.39,92.39 0 0 1 198.32,114 Z"
         style="opacity:0.3;fill:#66bc46"
         id="path89" />
      <path
         d="m 214.9,144.35 c -4.19,-2.56 -11.25,-7.86 -12.33,-13.23 a 79.84,79.84 0 0 1 -1.42,-14.56 90.74,90.74 0 0 0 13.75,-2.5 90.41,90.41 0 0 0 13.74,2.5 80.51,80.51 0 0 1 -1.42,14.56 c -1.08,5.37 -8.14,10.67 -12.32,13.23 z"
         style="fill:#66bc46"
         id="path90" />
      <path
         d="m 143.91,416.24 h -2 V 182.56 a 21.73,21.73 0 0 1 21.7,-21.7 h 44.6 a 5.7,5.7 0 0 0 5.68,-5.69 h 2 a 7.69,7.69 0 0 1 -7.68,7.69 h -44.6 a 19.72,19.72 0 0 0 -19.7,19.7 z"
         style="opacity:0.3;fill:#66bc46"
         id="path91" />
    </g>
  </g>
</svg>
